PathFileType	4	(X/Y/Z)	D:\Documents\Paper\paper_current\paper_step_1_data\data_step_3\marker\70DL\subject_01.tsv
DataRate	CameraRate	NumFrames	NumMarkers	Units	OrigDataRate	OrigDataStartFrame	OrigNumFrames
200	200	7	39	mm	200	5697	200
Frame#	Time	Top.Head			L.Acromium			R.Acromium			Sternum			L.ASIS			R.ASIS			V.Sacral			L.Ankle.Lat			L.Toe.Tip			R.Heel			R.Ankle.Med			R.Ankle.Lat			L.Toe.Med			L.Toe.Lat			L.Heel			L.Ankle.Med			L.Shank1			L.Shank2			R.Toe.Tip			R.Toe.Med			R.Toe.Lat			L.Thigh2			L.Thigh1			L.Thigh3			R.Thigh3			R.Thigh1			R.Thigh2			R.Shank1			R.Shank2			R.Shank3			L.Shank3			L.Shank4			R.Shank4			L.Thigh4			R.Thigh4			R.Heel.Lat			R.Heel.Med			L.Heel.Lat			L.Heel.Med		
		X1	Y1	Z1	X2	Y2	Z2	X3	Y3	Z3	X4	Y4	Z4	X5	Y5	Z5	X6	Y6	Z6	X7	Y7	Z7	X8	Y8	Z8	X9	Y9	Z9	X10	Y10	Z10	X11	Y11	Z11	X12	Y12	Z12	X13	Y13	Z13	X14	Y14	Z14	X15	Y15	Z15	X16	Y16	Z16	X17	Y17	Z17	X18	Y18	Z18	X19	Y19	Z19	X20	Y20	Z20	X21	Y21	Z21	X22	Y22	Z22	X23	Y23	Z23	X24	Y24	Z24	X25	Y25	Z25	X26	Y26	Z26	X27	Y27	Z27	X28	Y28	Z28	X29	Y29	Z29	X30	Y30	Z30	X31	Y31	Z31	X32	Y32	Z32	X33	Y33	Z33	X34	Y34	Z34	X35	Y35	Z35	X36	Y36	Z36	X37	Y37	Z37	X38	Y38	Z38	X39	Y39	Z39
5698	28.485	365.265	1632.244	-750.386	114.758	1420.047	-807.268	271.863	1411.252	-533.731	276.007	1327.586	-716.975	182.2	920.164	-814.658	299.512	923.406	-609.974	98.085	931.747	-624.459	-71.573	188.662	-888.932	50.172	46.138	-921.785	266.48	42.054	-584.903	338.219	118.114	-685.871	367.148	95.984	-593.261	20.45	59.575	-853.517	-36.752	81.672	-939.193	-172.352	184.724	-820.476	-41.133	176.945	-809.749	141.835	397.378	-919.053	90.735	334.025	-933.182	513.925	47.108	-742.467	435.982	47.883	-743.21	469.14	35.581	-637.574	203.782	621.495	-899.368	187.431	701.045	-887.248	124.655	687.251	-883.239	298.278	603.595	-573.916	360.606	618.198	-584.13	377.801	540.149	-614.268	427.204	388.131	-627.959	421.624	302.253	-618.766	382.312	396.426	-584.316	90.921	436.774	-917.239	34.677	366.265	-924.765	376.713	314.068	-575.072	139.052	601.049	-894.494	317.471	524.605	-603.709	334.948	34.02	-567.341	293.654	31.829	-659.426	-153.032	147.156	-882.752	-112.578	139.579	-786.875
5699	28.49	362.834	1631.924	-749.738	112.452	1419.251	-809.17	267.611	1410.775	-534.806	273.324	1327.057	-718.007	180.764	919.642	-816.503	296.818	922.967	-611.104	95.484	930.956	-626.815	-74.167	187.599	-892.682	47.984	44.783	-922.304	266.458	42.102	-584.846	338.358	118.338	-686.212	367.037	96.004	-593.335	17.137	58.807	-854.751	-38.683	80.055	-941.551	-176.117	184.285	-826.09	-45.444	176.591	-812.708	139.729	396.109	-919.99	88.845	332.852	-934.783	513.943	47.12	-742.446	435.998	47.89	-743.164	469.151	35.571	-637.548	202.002	620.419	-900.332	185.943	699.999	-888.451	122.988	686.453	-884.799	296.593	603.263	-575.112	358.902	618.118	-585.054	376.493	540.298	-615.091	426.498	388.268	-628.406	421.064	302.409	-619.058	381.439	396.58	-584.963	88.959	435.805	-919.514	32.754	365.275	-927.444	375.973	314.224	-575.538	137.31	600.6	-896.268	316.26	524.354	-604.802	334.932	34.023	-567.355	293.579	31.798	-659.325	-155.702	146.012	-887.605	-116.921	139.501	-791.018
5700	28.495	360.376	1631.562	-749.086	110.149	1418.451	-811.167	263.292	1410.284	-535.911	270.593	1326.508	-719.049	179.238	919.149	-818.312	294.061	922.501	-612.254	92.814	930.156	-629.15	-76.665	186.452	-896.367	45.809	43.464	-922.657	266.436	42.126	-584.815	338.452	118.45	-686.492	366.923	96.018	-593.415	13.867	58.003	-855.849	-40.555	78.314	-943.741	-179.737	183.761	-831.609	-49.681	176.159	-815.601	137.619	394.745	-920.828	87.004	331.633	-936.354	513.964	47.13	-742.424	436.014	47.89	-743.118	469.162	35.561	-637.522	200.193	619.325	-901.241	184.39	698.953	-889.63	121.22	685.583	-886.253	294.797	602.897	-576.329	357.091	617.99	-585.968	375.045	540.472	-615.912	425.733	388.406	-628.863	420.461	302.564	-619.362	380.51	396.716	-585.606	87.035	434.789	-921.824	30.882	364.208	-930.064	375.189	314.366	-576.017	135.472	600.014	-897.907	314.933	524.07	-605.918	334.914	34.023	-567.37	293.513	31.762	-659.24	-158.28	144.773	-892.36	-121.154	139.334	-795.103
5701	28.5	357.878	1631.149	-748.452	107.838	1417.642	-813.238	258.908	1409.775	-537.046	267.809	1325.936	-720.1	177.628	918.644	-820.151	291.242	922.016	-613.425	90.072	929.353	-631.464	-79.075	185.223	-899.963	43.684	42.292	-922.872	266.415	42.121	-584.822	338.475	118.392	-686.682	366.804	96.029	-593.506	10.675	57.209	-856.835	-42.33	76.489	-945.769	-183.219	183.098	-837.005	-53.808	175.619	-818.446	135.486	393.262	-921.533	85.198	330.364	-937.883	513.991	47.133	-742.402	436.028	47.879	-743.073	469.175	35.551	-637.499	198.369	618.206	-902.083	182.776	697.909	-890.799	119.34	684.638	-887.604	292.886	602.503	-577.57	355.166	617.819	-586.881	373.46	540.664	-616.735	424.904	388.541	-629.341	419.811	302.716	-619.689	379.524	396.835	-586.256	85.151	433.707	-924.128	29.057	363.065	-932.619	374.364	314.494	-576.514	133.543	599.281	-899.394	313.485	523.757	-607.056	334.895	34.022	-567.389	293.458	31.717	-659.176	-160.759	143.408	-896.996	-125.263	139.045	-799.12
5702	28.505	355.331	1630.682	-747.851	105.508	1416.817	-815.362	254.456	1409.245	-538.206	264.971	1325.342	-721.157	175.937	918.104	-821.998	288.361	921.521	-614.62	87.255	928.548	-633.757	-81.405	183.916	-903.445	41.655	41.356	-922.977	266.397	42.083	-584.871	338.411	118.119	-686.765	366.682	96.04	-593.611	7.602	56.464	-857.737	-43.966	74.622	-947.648	-186.572	182.234	-842.253	-57.795	174.951	-821.246	133.313	391.648	-922.087	83.416	329.042	-939.355	514.024	47.13	-742.379	436.04	47.853	-743.029	469.187	35.541	-637.478	196.539	617.06	-902.857	181.11	696.871	-891.964	117.349	683.619	-888.865	290.856	602.09	-578.832	353.125	617.618	-587.8	371.748	540.847	-617.558	424.007	388.674	-629.846	419.11	302.865	-620.048	378.477	396.937	-586.916	83.301	432.526	-926.345	27.27	361.848	-935.1	373.496	314.605	-577.033	131.551	598.421	-900.747	311.916	523.421	-608.213	334.874	34.022	-567.414	293.417	31.663	-659.138	-163.127	141.887	-901.496	-129.236	138.598	-803.058
5703	28.51	352.731	1630.161	-747.292	103.146	1415.975	-817.516	249.935	1408.689	-539.386	262.078	1324.726	-722.22	174.172	917.592	-823.861	285.414	921.016	-615.835	84.362	927.745	-636.035	-83.662	182.53	-906.786	39.772	40.702	-922.998	266.38	42.016	-584.963	338.249	117.607	-686.737	366.552	96.052	-593.733	4.687	55.79	-858.583	-45.428	72.75	-949.406	-189.802	181.11	-847.337	-61.617	174.151	-823.989	131.092	389.921	-922.502	81.645	327.667	-940.756	514.062	47.119	-742.357	436.048	47.81	-742.984	469.198	35.53	-637.461	194.705	615.897	-903.569	179.404	695.837	-893.124	115.27	682.542	-890.068	288.708	601.668	-580.114	350.969	617.399	-588.731	369.929	540.987	-618.377	423.032	388.805	-630.375	418.347	303.012	-620.436	377.36	397.024	-587.584	81.47	431.22	-928.385	25.512	360.559	-937.497	372.576	314.696	-577.571	129.531	597.479	-902.006	310.229	523.07	-609.381	334.852	34.023	-567.446	293.388	31.599	-659.124	-165.364	140.182	-905.843	-133.061	137.959	-806.906
5704	28.515	350.08	1629.586	-746.777	100.744	1415.117	-819.683	245.344	1408.103	-540.581	259.13	1324.089	-723.288	172.334	917.024	-825.725	282.396	920.506	-617.066	81.393	926.945	-638.307	-85.847	181.065	-909.966	38.084	40.326	-922.96	266.365	41.926	-585.089	337.991	116.856	-686.607	366.415	96.068	-593.871	1.957	55.185	-859.394	-46.69	70.906	-951.081	-192.913	179.685	-852.245	-65.258	173.22	-826.651	128.837	388.134	-922.831	79.876	326.241	-942.075	514.105	47.101	-742.333	436.052	47.75	-742.936	469.208	35.518	-637.447	192.865	614.729	-904.234	177.672	694.806	-894.272	113.15	681.443	-891.271	286.441	601.247	-581.412	348.699	617.177	-589.676	368.019	541.057	-619.183	421.968	388.939	-630.919	417.515	303.158	-620.845	376.161	397.096	-588.253	79.625	429.785	-930.194	23.772	359.207	-939.799	371.591	314.768	-578.122	127.519	596.51	-903.219	308.424	522.71	-610.553	334.829	34.025	-567.486	293.37	31.528	-659.133	-167.447	138.281	-910.032	-136.73	137.096	-810.655
